<mxfile host="jWj">
  <diagram id="rZL" name="Domain Modal">
    <mxGraphModel dx="0" dy="0" background="#fafafa" grid="0" gridSize="10" guides="1" tooltips="1" connect="1" arrows="1" fold="1" page="1" pageScale="1" pageWidth="1169" pageHeight="827" math="0" shadow="0">
      <root>
        <mxCell id="page_root_rZL" parent="rZL"/>
        <mxCell id="node_root_rZL" parent="page_root_rZL"/>
        <mxCell id="rZL-2" value="&lt;p style=&quot;margin:0px;margin-left:4px;margin-bottom:4px;text-align:center&quot;&gt;&lt;b&gt;Flow&lt;/b&gt;&lt;/p&gt;&lt;hr size=&quot;1&quot;/&gt;&lt;p style=&quot;margin:0px;margin-left:4px;margin-bottom:4px&quot;&gt;attach handlebars-4.7.7.js&lt;/p&gt;&lt;p style=&quot;margin:0px;margin-left:4px;margin-bottom:4px&quot;&gt;attach handlebars-custom.js&lt;/p&gt;" style="whiteSpace=wrap;html=1;rounded=0;fillColor=#dae8fc;strokeColor=#6c8ebf;fontColor=#333333;align=left;overflow=fill;fontSize=12;fontFamily=Helvetica" vertex="1" parent="node_root_rZL">
          <mxGeometry x="10" y="10" width="160" height="160" as="geometry"/>
        </mxCell>
        <mxCell id="rZL-3" value="&lt;p style=&quot;margin:0px;margin-left:4px;margin-bottom:4px;text-align:center&quot;&gt;&lt;b&gt;Configuration&lt;/b&gt;&lt;/p&gt;&lt;hr size=&quot;1&quot;/&gt;&lt;p style=&quot;margin:0px;margin-left:4px;margin-bottom:4px&quot;&gt;javascript&lt;/p&gt;&lt;p style=&quot;margin:0px;margin-left:4px;margin-bottom:4px&quot;&gt;javascript_file&lt;/p&gt;" style="whiteSpace=wrap;html=1;rounded=0;fillColor=#ffe6cc;strokeColor=#d79b00;fontColor=#333333;align=left;overflow=fill;fontSize=12;fontFamily=Helvetica" vertex="1" parent="node_root_rZL">
          <mxGeometry x="190" y="10" width="160" height="160" as="geometry"/>
        </mxCell>
        <mxCell id="rZL-4" value="&lt;p style=&quot;margin:0px;margin-left:4px;margin-bottom:4px;text-align:center&quot;&gt;&lt;b&gt;Manager&lt;/b&gt;&lt;/p&gt;&lt;hr size=&quot;1&quot;/&gt;&lt;p style=&quot;margin:0px;margin-left:4px;margin-bottom:4px&quot;&gt;snapshot: MR::Snapshot&lt;/p&gt;&lt;hr size=&quot;1&quot;/&gt;&lt;p style=&quot;margin:0px;margin-left:4px;margin-bottom:4px&quot;&gt;load_javascript()&lt;/p&gt;&lt;p style=&quot;margin:0px;margin-left:4px;margin-bottom:4px&quot;&gt;register_helper()&lt;/p&gt;&lt;p style=&quot;margin:0px;margin-left:4px;margin-bottom:4px&quot;&gt;register_partial()&lt;/p&gt;&lt;p style=&quot;margin:0px;margin-left:4px;margin-bottom:4px&quot;&gt;compile_template()&lt;/p&gt;&lt;p style=&quot;margin:0px;margin-left:4px;margin-bottom:4px&quot;&gt;execute_template()&lt;/p&gt;&lt;p style=&quot;margin:0px;margin-left:4px;margin-bottom:4px&quot;&gt;execute_javascript()&lt;/p&gt;" style="whiteSpace=wrap;html=1;rounded=0;fillColor=#ffe6cc;strokeColor=#d79b00;fontColor=#333333;align=left;overflow=fill;fontSize=12;fontFamily=Helvetica" vertex="1" parent="node_root_rZL">
          <mxGeometry x="370" y="10" width="160" height="160" as="geometry"/>
        </mxCell>
        <mxCell id="rZL-5" value="&lt;p style=&quot;margin:0px;margin-left:4px;margin-bottom:4px;text-align:center&quot;&gt;&lt;b&gt;Context&lt;/b&gt;&lt;/p&gt;&lt;hr size=&quot;1&quot;/&gt;" style="whiteSpace=wrap;html=1;rounded=0;fillColor=#ffe6cc;strokeColor=#d79b00;fontColor=#333333;align=left;overflow=fill;fontSize=12;fontFamily=Helvetica" vertex="1" parent="node_root_rZL">
          <mxGeometry x="550" y="10" width="160" height="160" as="geometry"/>
        </mxCell>
        <mxCell id="rZL-6" value="" style="whiteSpace=wrap;html=1;rounded=0;fillColor=#fafafa;strokeColor=#fafafa;fontColor=#fafafa" vertex="1" parent="node_root_rZL">
          <mxGeometry x="805" y="85" width="10" height="10" as="geometry"/>
        </mxCell>
        <mxCell id="rZL-7" value="" style="whiteSpace=wrap;html=1;rounded=0;fillColor=#fafafa;strokeColor=#fafafa;fontColor=#fafafa" vertex="1" parent="node_root_rZL">
          <mxGeometry x="985" y="85" width="10" height="10" as="geometry"/>
        </mxCell>
        <mxCell id="a1" value="KManager -&gt; KBuilder" style="whiteSpace=wrap;html=1;rounded=0;fillColor=#ffe6cc;strokeColor=#d79b00;fontColor=#333333" vertex="1" parent="node_root_rZL">
          <mxGeometry x="10" y="190" width="80" height="80" as="geometry"/>
        </mxCell>
        <mxCell id="a2" value="Handlebars-Helpers (ruby)" style="whiteSpace=wrap;html=1;rounded=0;fillColor=#ffe6cc;strokeColor=#d79b00;fontColor=#333333" vertex="1" parent="node_root_rZL">
          <mxGeometry x="110" y="190" width="80" height="80" as="geometry"/>
        </mxCell>
        <mxCell id="a3" value="HandlebarsJS (ruby)" style="whiteSpace=wrap;html=1;rounded=0;fillColor=#d5e8d4;strokeColor=#82b366;fontColor=#333333" vertex="1" parent="node_root_rZL">
          <mxGeometry x="210" y="190" width="80" height="80" as="geometry"/>
        </mxCell>
        <mxCell id="a4" value="Mini Racer" style="whiteSpace=wrap;html=1;rounded=0;fillColor=#d5e8d4;strokeColor=#82b366;fontColor=#333333" vertex="1" parent="node_root_rZL">
          <mxGeometry x="310" y="190" width="80" height="80" as="geometry"/>
        </mxCell>
        <mxCell id="a5" value="Handlebars (ruby)" style="whiteSpace=wrap;html=1;rounded=0;fillColor=#f8cecc;strokeColor=#b85450;fontColor=#333333" vertex="1" parent="node_root_rZL">
          <mxGeometry x="410" y="190" width="80" height="80" as="geometry"/>
        </mxCell>
        <mxCell id="a6" value="The Ruby Racer" style="whiteSpace=wrap;html=1;rounded=0;fillColor=#f8cecc;strokeColor=#b85450;fontColor=#333333" vertex="1" parent="node_root_rZL">
          <mxGeometry x="510" y="190" width="80" height="80" as="geometry"/>
        </mxCell>
        <mxCell id="a7" value="Node V8 engine" style="whiteSpace=wrap;html=1;rounded=0;fillColor=#1ba1e2;strokeColor=#006EAF;fontColor=#ffffff" vertex="1" parent="node_root_rZL">
          <mxGeometry x="10" y="290" width="80" height="80" as="geometry"/>
        </mxCell>
        <mxCell id="a8" value="Handlebars.js (javascript)" style="whiteSpace=wrap;html=1;rounded=0;fillColor=#ffe6cc;strokeColor=#d79b00;fontColor=#333333" vertex="1" parent="node_root_rZL">
          <mxGeometry x="110" y="290" width="80" height="80" as="geometry"/>
        </mxCell>
        <mxCell id="rZL-17" value="" style="edgeStyle=orthogonalEdgeStyle;curved=1;exitX=1;exitY=0.5;exitDx=0;exitDy=0;entryX=0;entryY=0.5;entryDx=0;entryDy=0;startArrow=none;startFill=1;endArrow=open;endFill=1;whiteSpace=wrap;html=1;rounded=0;fillColor=#ffe6cc;strokeColor=#d79b00" parent="node_root_rZL" source="a1" target="a2" edge="1">
          <mxGeometry relative="1" as="geometry"/>
        </mxCell>
        <mxCell id="rZL-18" value="" style="edgeStyle=orthogonalEdgeStyle;curved=1;exitX=1;exitY=0.5;exitDx=0;exitDy=0;entryX=0;entryY=0.5;entryDx=0;entryDy=0;startArrow=none;startFill=1;endArrow=open;endFill=1;whiteSpace=wrap;html=1;rounded=0;fillColor=#ffe6cc;strokeColor=#d79b00" parent="node_root_rZL" source="a2" target="a3" edge="1">
          <mxGeometry relative="1" as="geometry"/>
        </mxCell>
        <mxCell id="rZL-19" value="" style="edgeStyle=orthogonalEdgeStyle;curved=1;exitX=1;exitY=0.5;exitDx=0;exitDy=0;entryX=0;entryY=0.5;entryDx=0;entryDy=0;startArrow=none;startFill=1;endArrow=open;endFill=1;whiteSpace=wrap;html=1;rounded=0;fillColor=#ffe6cc;strokeColor=#d79b00" parent="node_root_rZL" source="a3" target="a4" edge="1">
          <mxGeometry relative="1" as="geometry"/>
        </mxCell>
        <mxCell id="rZL-20" value="" style="edgeStyle=orthogonalEdgeStyle;curved=1;exitX=1;exitY=0.5;exitDx=0;exitDy=0;entryX=0;entryY=0.5;entryDx=0;entryDy=0;startArrow=none;startFill=1;endArrow=open;endFill=1;whiteSpace=wrap;html=1;rounded=0;fillColor=#ffe6cc;strokeColor=#d79b00" parent="node_root_rZL" source="a2" target="a5" edge="1">
          <mxGeometry relative="1" as="geometry"/>
        </mxCell>
        <mxCell id="rZL-21" value="" style="edgeStyle=orthogonalEdgeStyle;curved=1;exitX=1;exitY=0.5;exitDx=0;exitDy=0;entryX=0;entryY=0.5;entryDx=0;entryDy=0;startArrow=none;startFill=1;endArrow=open;endFill=1;whiteSpace=wrap;html=1;rounded=0;fillColor=#ffe6cc;strokeColor=#d79b00" parent="node_root_rZL" source="a5" target="a6" edge="1">
          <mxGeometry relative="1" as="geometry"/>
        </mxCell>
        <mxCell id="rZL-22" value="" style="edgeStyle=orthogonalEdgeStyle;curved=1;exitX=1;exitY=0.5;exitDx=0;exitDy=0;entryX=0;entryY=0.5;entryDx=0;entryDy=0;startArrow=none;startFill=1;endArrow=open;endFill=1;whiteSpace=wrap;html=1;rounded=0;fillColor=#ffe6cc;strokeColor=#d79b00" parent="node_root_rZL" source="a4" target="a7" edge="1">
          <mxGeometry relative="1" as="geometry"/>
        </mxCell>
        <mxCell id="rZL-23" value="" style="edgeStyle=orthogonalEdgeStyle;curved=1;exitX=1;exitY=0.5;exitDx=0;exitDy=0;entryX=0;entryY=0.5;entryDx=0;entryDy=0;startArrow=none;startFill=1;endArrow=open;endFill=1;whiteSpace=wrap;html=1;rounded=0;fillColor=#ffe6cc;strokeColor=#d79b00" parent="node_root_rZL" source="a6" target="a7" edge="1">
          <mxGeometry relative="1" as="geometry"/>
        </mxCell>
        <mxCell id="rZL-24" value="" style="edgeStyle=orthogonalEdgeStyle;curved=1;exitX=1;exitY=0.5;exitDx=0;exitDy=0;entryX=0;entryY=0.5;entryDx=0;entryDy=0;startArrow=none;startFill=1;endArrow=open;endFill=1;whiteSpace=wrap;html=1;rounded=0;fillColor=#ffe6cc;strokeColor=#d79b00" parent="node_root_rZL" source="a7" target="a8" edge="1">
          <mxGeometry relative="1" as="geometry"/>
        </mxCell>
        <mxCell id="rZL-25" value="" style="whiteSpace=wrap;html=1;rounded=0;fillColor=#fafafa;strokeColor=#fafafa;fontColor=#fafafa" vertex="1" parent="node_root_rZL">
          <mxGeometry x="245" y="325" width="10" height="10" as="geometry"/>
        </mxCell>
        <mxCell id="rZL-26" value="" style="whiteSpace=wrap;html=1;rounded=0;fillColor=#fafafa;strokeColor=#fafafa;fontColor=#fafafa" vertex="1" parent="node_root_rZL">
          <mxGeometry x="345" y="325" width="10" height="10" as="geometry"/>
        </mxCell>
        <mxCell id="rZL-27" value="" style="whiteSpace=wrap;html=1;rounded=0;fillColor=#fafafa;strokeColor=#fafafa;fontColor=#fafafa" vertex="1" parent="node_root_rZL">
          <mxGeometry x="445" y="325" width="10" height="10" as="geometry"/>
        </mxCell>
        <mxCell id="rZL-28" value="" style="whiteSpace=wrap;html=1;rounded=0;fillColor=#fafafa;strokeColor=#fafafa;fontColor=#fafafa" vertex="1" parent="node_root_rZL">
          <mxGeometry x="545" y="325" width="10" height="10" as="geometry"/>
        </mxCell>
        <mxCell id="rZL-30" value="Domain Model" style="whiteSpace=wrap;html=1;rounded=0;fillColor=#f5f5f5;strokeColor=#666666;fontColor=#333333;fontSize=20;verticalAlign=top" vertex="1" parent="node_root_rZL">
          <mxGeometry x="25" y="405" width="50" height="50" as="geometry"/>
        </mxCell>
        <mxCell id="rZL-31" value="GEM Architecture Flow" style="whiteSpace=wrap;html=1;rounded=0;fillColor=#f5f5f5;strokeColor=#666666;fontColor=#333333;fontSize=20;verticalAlign=top" vertex="1" parent="node_root_rZL">
          <mxGeometry x="25" y="505" width="50" height="50" as="geometry"/>
        </mxCell>
      </root>
    </mxGraphModel>
  </diagram>
</mxfile>